<svg xmlns="http://www.w3.org/2000/svg" viewBox="0 0 900 520" font-family="'Segoe UI', Arial, sans-serif">
  <defs>
    <linearGradient id="bg" x1="0" y1="0" x2="0" y2="1">
      <stop offset="0%" stop-color="#0f172a"/>
      <stop offset="100%" stop-color="#1e293b"/>
    </linearGradient>
    <linearGradient id="clientGrad" x1="0" y1="0" x2="1" y2="1">
      <stop offset="0%" stop-color="#6366f1"/>
      <stop offset="100%" stop-color="#818cf8"/>
    </linearGradient>
    <linearGradient id="nginxGrad" x1="0" y1="0" x2="1" y2="1">
      <stop offset="0%" stop-color="#059669"/>
      <stop offset="100%" stop-color="#34d399"/>
    </linearGradient>
    <linearGradient id="fastapiGrad" x1="0" y1="0" x2="1" y2="1">
      <stop offset="0%" stop-color="#0891b2"/>
      <stop offset="100%" stop-color="#22d3ee"/>
    </linearGradient>
    <linearGradient id="pgGrad" x1="0" y1="0" x2="1" y2="1">
      <stop offset="0%" stop-color="#2563eb"/>
      <stop offset="100%" stop-color="#60a5fa"/>
    </linearGradient>
    <linearGradient id="redisGrad" x1="0" y1="0" x2="1" y2="1">
      <stop offset="0%" stop-color="#dc2626"/>
      <stop offset="100%" stop-color="#f87171"/>
    </linearGradient>
    <linearGradient id="cppGrad" x1="0" y1="0" x2="1" y2="1">
      <stop offset="0%" stop-color="#7c3aed"/>
      <stop offset="100%" stop-color="#a78bfa"/>
    </linearGradient>
    <filter id="shadow">
      <feDropShadow dx="0" dy="2" stdDeviation="4" flood-color="#000" flood-opacity="0.3"/>
    </filter>
    <marker id="arrowhead" markerWidth="10" markerHeight="7" refX="9" refY="3.5" orient="auto">
      <polygon points="0 0, 10 3.5, 0 7" fill="#94a3b8"/>
    </marker>
    <marker id="arrowBlue" markerWidth="10" markerHeight="7" refX="9" refY="3.5" orient="auto">
      <polygon points="0 0, 10 3.5, 0 7" fill="#60a5fa"/>
    </marker>
    <marker id="arrowRed" markerWidth="10" markerHeight="7" refX="9" refY="3.5" orient="auto">
      <polygon points="0 0, 10 3.5, 0 7" fill="#f87171"/>
    </marker>
  </defs>

  <!-- Background -->
  <rect width="900" height="520" fill="url(#bg)" rx="12"/>

  <!-- Title -->
  <text x="450" y="42" text-anchor="middle" fill="#e2e8f0" font-size="20" font-weight="700" letter-spacing="1">RoboSense API — System Architecture</text>
  <line x1="300" y1="52" x2="600" y2="52" stroke="#475569" stroke-width="1"/>

  <!-- Docker boundary -->
  <rect x="60" y="130" width="780" height="370" rx="16" fill="none" stroke="#475569" stroke-width="1.5" stroke-dasharray="8 4"/>
  <text x="80" y="155" fill="#94a3b8" font-size="12" font-weight="600">Docker Compose</text>

  <!-- ============ CLIENT ============ -->
  <rect x="330" y="68" width="240" height="46" rx="10" fill="url(#clientGrad)" filter="url(#shadow)"/>
  <text x="450" y="96" text-anchor="middle" fill="#fff" font-size="14" font-weight="600">Client / Locust / Landing Page</text>

  <!-- Arrow: Client → Nginx -->
  <line x1="450" y1="114" x2="450" y2="168" stroke="#94a3b8" stroke-width="2" marker-end="url(#arrowhead)"/>
  <text x="462" y="145" fill="#94a3b8" font-size="10">HTTP :80</text>

  <!-- ============ NGINX ============ -->
  <rect x="310" y="168" width="280" height="50" rx="10" fill="url(#nginxGrad)" filter="url(#shadow)"/>
  <text x="450" y="190" text-anchor="middle" fill="#fff" font-size="13" font-weight="700">Nginx</text>
  <text x="450" y="207" text-anchor="middle" fill="#d1fae5" font-size="10">Reverse Proxy / Load Balancer (Round-Robin)</text>

  <!-- ============ FASTAPI x5 ============ -->
  <!-- Arrows: Nginx → FastAPIs -->
  <line x1="350" y1="218" x2="130" y2="260" stroke="#94a3b8" stroke-width="1.5" marker-end="url(#arrowhead)"/>
  <line x1="400" y1="218" x2="290" y2="260" stroke="#94a3b8" stroke-width="1.5" marker-end="url(#arrowhead)"/>
  <line x1="450" y1="218" x2="450" y2="260" stroke="#94a3b8" stroke-width="1.5" marker-end="url(#arrowhead)"/>
  <line x1="500" y1="218" x2="610" y2="260" stroke="#94a3b8" stroke-width="1.5" marker-end="url(#arrowhead)"/>
  <line x1="550" y1="218" x2="770" y2="260" stroke="#94a3b8" stroke-width="1.5" marker-end="url(#arrowhead)"/>

  <!-- FastAPI boxes -->
  <rect x="75" y="260" width="130" height="55" rx="8" fill="url(#fastapiGrad)" filter="url(#shadow)"/>
  <text x="140" y="283" text-anchor="middle" fill="#fff" font-size="12" font-weight="600">FastAPI-1</text>
  <text x="140" y="303" text-anchor="middle" fill="#cffafe" font-size="9">Uvicorn x2</text>

  <rect x="225" y="260" width="130" height="55" rx="8" fill="url(#fastapiGrad)" filter="url(#shadow)"/>
  <text x="290" y="283" text-anchor="middle" fill="#fff" font-size="12" font-weight="600">FastAPI-2</text>
  <text x="290" y="303" text-anchor="middle" fill="#cffafe" font-size="9">Uvicorn x2</text>

  <rect x="385" y="260" width="130" height="55" rx="8" fill="url(#fastapiGrad)" filter="url(#shadow)"/>
  <text x="450" y="283" text-anchor="middle" fill="#fff" font-size="12" font-weight="600">FastAPI-3</text>
  <text x="450" y="303" text-anchor="middle" fill="#cffafe" font-size="9">Uvicorn x2</text>

  <rect x="545" y="260" width="130" height="55" rx="8" fill="url(#fastapiGrad)" filter="url(#shadow)"/>
  <text x="610" y="283" text-anchor="middle" fill="#fff" font-size="12" font-weight="600">FastAPI-4</text>
  <text x="610" y="303" text-anchor="middle" fill="#cffafe" font-size="9">Uvicorn x2</text>

  <rect x="705" y="260" width="130" height="55" rx="8" fill="url(#fastapiGrad)" filter="url(#shadow)"/>
  <text x="770" y="283" text-anchor="middle" fill="#fff" font-size="12" font-weight="600">FastAPI-5</text>
  <text x="770" y="303" text-anchor="middle" fill="#cffafe" font-size="9">Uvicorn x2</text>

  <!-- ============ C++ MODULE (individual per FastAPI) ============ -->
  <rect x="75" y="315" width="130" height="24" rx="5" fill="url(#cppGrad)" filter="url(#shadow)"/>
  <text x="140" y="331" text-anchor="middle" fill="#fff" font-size="8" font-weight="600">C++ (Pybind11)</text>

  <rect x="225" y="315" width="130" height="24" rx="5" fill="url(#cppGrad)" filter="url(#shadow)"/>
  <text x="290" y="331" text-anchor="middle" fill="#fff" font-size="8" font-weight="600">C++ (Pybind11)</text>

  <rect x="385" y="315" width="130" height="24" rx="5" fill="url(#cppGrad)" filter="url(#shadow)"/>
  <text x="450" y="331" text-anchor="middle" fill="#fff" font-size="8" font-weight="600">C++ (Pybind11)</text>

  <rect x="545" y="315" width="130" height="24" rx="5" fill="url(#cppGrad)" filter="url(#shadow)"/>
  <text x="610" y="331" text-anchor="middle" fill="#fff" font-size="8" font-weight="600">C++ (Pybind11)</text>

  <rect x="705" y="315" width="130" height="24" rx="5" fill="url(#cppGrad)" filter="url(#shadow)"/>
  <text x="770" y="331" text-anchor="middle" fill="#fff" font-size="8" font-weight="600">C++ (Pybind11)</text>

  <!-- ============ Vertical lines from each C++ module down to bus ============ -->
  <line x1="140" y1="339" x2="140" y2="370" stroke="#94a3b8" stroke-width="1.5"/>
  <line x1="290" y1="339" x2="290" y2="370" stroke="#94a3b8" stroke-width="1.5"/>
  <line x1="450" y1="339" x2="450" y2="370" stroke="#94a3b8" stroke-width="1.5"/>
  <line x1="610" y1="339" x2="610" y2="370" stroke="#94a3b8" stroke-width="1.5"/>
  <line x1="770" y1="339" x2="770" y2="370" stroke="#94a3b8" stroke-width="1.5"/>

  <!-- Horizontal bus line -->
  <line x1="140" y1="370" x2="770" y2="370" stroke="#94a3b8" stroke-width="2.5"/>

  <!-- Arrow: bus → PostgreSQL -->
  <line x1="330" y1="370" x2="330" y2="420" stroke="#60a5fa" stroke-width="2.5" marker-end="url(#arrowBlue)"/>
  <text x="295" y="400" fill="#60a5fa" font-size="10" font-weight="600">Async</text>

  <!-- Arrow: bus → Redis -->
  <line x1="630" y1="370" x2="630" y2="420" stroke="#f87171" stroke-width="2.5" marker-end="url(#arrowRed)"/>
  <text x="645" y="400" fill="#f87171" font-size="10" font-weight="600">Cache</text>

  <!-- ============ POSTGRESQL ============ -->
  <rect x="200" y="420" width="260" height="60" rx="10" fill="url(#pgGrad)" filter="url(#shadow)"/>
  <text x="330" y="446" text-anchor="middle" fill="#fff" font-size="14" font-weight="700">PostgreSQL</text>
  <text x="330" y="468" text-anchor="middle" fill="#bfdbfe" font-size="10">Port 5432 · Persistent Storage</text>

  <!-- ============ REDIS ============ -->
  <rect x="500" y="420" width="260" height="60" rx="10" fill="url(#redisGrad)" filter="url(#shadow)"/>
  <text x="630" y="446" text-anchor="middle" fill="#fff" font-size="14" font-weight="700">Redis</text>
  <text x="630" y="468" text-anchor="middle" fill="#fecaca" font-size="10">Port 6379 · Cache Layer</text>
</svg>
